<?xml version="1.0" encoding="UTF-8" standalone="no"?>
<!-- Created with Inkscape (http://www.inkscape.org/) -->

<svg
   width="10.682645mm"
   height="6.6277499mm"
   viewBox="0 0 10.682645 6.6277498"
   version="1.1"
   id="svg1"
   inkscape:version="1.3 (0e150ed, 2023-07-21)"
   sodipodi:docname="nukemap_marker_target.svg"
   inkscape:export-filename="nukemap_marker_target.png"
   inkscape:export-xdpi="114.12904"
   inkscape:export-ydpi="114.12904"
   xmlns:inkscape="http://www.inkscape.org/namespaces/inkscape"
   xmlns:sodipodi="http://sodipodi.sourceforge.net/DTD/sodipodi-0.dtd"
   xmlns="http://www.w3.org/2000/svg"
   xmlns:svg="http://www.w3.org/2000/svg">
  <sodipodi:namedview
     id="namedview1"
     pagecolor="#ffffff"
     bordercolor="#000000"
     borderopacity="0.25"
     inkscape:showpageshadow="2"
     inkscape:pageopacity="0.0"
     inkscape:pagecheckerboard="0"
     inkscape:deskcolor="#d1d1d1"
     inkscape:document-units="mm"
     inkscape:zoom="13.455443"
     inkscape:cx="23.187642"
     inkscape:cy="11.779619"
     inkscape:window-width="1312"
     inkscape:window-height="674"
     inkscape:window-x="-1"
     inkscape:window-y="38"
     inkscape:window-maximized="0"
     inkscape:current-layer="layer1" />
  <defs
     id="defs1" />
  <g
     inkscape:label="Layer 1"
     inkscape:groupmode="layer"
     id="layer1"
     transform="translate(-99.854225,-145.19511)">
    <path
       style="color:#000000;fill:#3d2323;fill-opacity:0.60000002;stroke-width:1;-inkscape-stroke:none"
       d="m 105.19554,145.63101 c -2.74875,0 -4.98737,1.38888 -4.98737,3.09427 0,1.70539 2.23862,3.09428 4.98737,3.09428 2.74876,0 4.98738,-1.38889 4.98738,-3.09428 0,-1.70539 -2.23862,-3.09427 -4.98738,-3.09427 z"
       id="path116-1-9-4"
       sodipodi:nodetypes="sssss" />
    <path
       style="color:#000000;fill:#3d2323;fill-opacity:0.8;stroke-width:1;-inkscape-stroke:none"
       d="m 105.19554,145.70966 c -2.49985,0 -4.53574,1.27415 -4.53574,2.83864 0,1.56451 2.03589,2.83866 4.53574,2.83866 2.49984,0 4.53575,-1.27415 4.53575,-2.83866 0,-1.56449 -2.03591,-2.83864 -4.53575,-2.83864 z"
       id="path116-1-9-4-7"
       sodipodi:nodetypes="sssss" />
    <ellipse
       style="fill:#ff4e3f;fill-opacity:1;stroke:none;stroke-width:0.264583;stroke-dasharray:none;stroke-dashoffset:0"
       id="path116"
       cx="105.19555"
       cy="148.50899"
       rx="1.0064442"
       ry="0.62442124" />
    <path
       style="color:#000000;fill:#ff4e3f;fill-opacity:1;stroke-width:1;-inkscape-stroke:none"
       d="m 105.19555,146.79797 c -1.51793,0 -2.75781,0.76925 -2.75781,1.71101 0,0.94176 1.23988,1.71101 2.75781,1.71101 1.51793,0 2.75781,-0.76925 2.75781,-1.71101 0,-0.94176 -1.23988,-1.71101 -2.75781,-1.71101 z m 0,0.53681 c 1.05045,0 1.89258,0.52247 1.89258,1.1742 0,0.65172 -0.84213,1.1742 -1.89258,1.1742 -1.05045,0 -1.89258,-0.52248 -1.89258,-1.1742 0,-0.65173 0.84213,-1.1742 1.89258,-1.1742 z"
       id="path116-1" />
    <path
       style="color:#000000;fill:#ff4e3f;fill-opacity:1;stroke-width:1;-inkscape-stroke:none"
       d="m 105.19555,145.78615 c -2.41878,0 -4.38867,1.22217 -4.38867,2.72284 0,1.50066 1.96989,2.72283 4.38867,2.72283 2.41878,0 4.38867,-1.22217 4.38867,-2.72283 0,-1.50067 -1.96989,-2.72284 -4.38867,-2.72284 z m 0,0.53682 c 1.9513,0 3.52344,0.97539 3.52344,2.18602 0,1.21063 -1.57214,2.18723 -3.52344,2.18723 -1.9513,0 -3.52344,-0.9766 -3.52344,-2.18723 0,-1.21063 1.57214,-2.18602 3.52344,-2.18602 z"
       id="path116-1-9" />
  </g>
</svg>
